<svg width="24" height="24" viewBox="0 0 24 24" fill="none" xmlns="http://www.w3.org/2000/svg">
<path d="M12.012 24C18.636 24 24 18.624 24 12C24 5.376 18.636 -1.42261e-06 12.012 -2.0017e-06C5.376 -2.58184e-06 6.74488e-07 5.376 9.5399e-08 12C-4.83689e-07 18.624 5.376 24 12.012 24ZM12 2.4C17.304 2.4 21.6 6.696 21.6 12C21.6 17.304 17.304 21.6 12 21.6C6.696 21.6 2.4 17.304 2.4 12C2.4 6.696 6.696 2.4 12 2.4ZM12.264 18L12.336 18C12.816 18 13.2 17.616 13.2 17.136L13.2 11.472C13.2 11.052 12.984 10.656 12.612 10.44L7.632 7.452C7.224 7.212 6.696 7.332 6.456 7.74C6.204 8.148 6.336 8.688 6.756 8.928L11.4 11.688L11.4 17.136C11.4 17.616 11.784 18 12.264 18Z" fill="#495E57"/>
</svg>
